<svg xmlns="http://www.w3.org/2000/svg" xmlns:xlink="http://www.w3.org/1999/xlink" width="22" height="22" viewBox="0 0 22 22">
  <g id="Group_11476" data-name="Group 11476" transform="translate(-1489 -3)">
    <g id="Preview" transform="translate(1489 3)">
      <g id="Mask_Group_10353" data-name="Mask Group 10353" transform="translate(-1482 -3)">
        <g id="noun-preview-5837615" transform="translate(1479.67 0.822)">
          <path id="Path_5259" data-name="Path 5259" d="M18.907,4.356H8.321A3.532,3.532,0,0,0,4.792,7.885V9.944a1.176,1.176,0,1,0,2.352,0V7.885A1.176,1.176,0,0,1,8.321,6.709H18.907a1.176,1.176,0,0,1,1.176,1.176V17.3a1.176,1.176,0,0,1-1.176,1.176H15.084a1.176,1.176,0,1,0,0,2.352h3.823A3.532,3.532,0,0,0,22.436,17.3V7.885A3.532,3.532,0,0,0,18.907,4.356Z" transform="translate(0.305)" fill="#2b2b2b"/>
          <path id="Path_5260" data-name="Path 5260" d="M14.964,7.842H9.671a1.176,1.176,0,1,0,0,2.352h5.293a1.176,1.176,0,1,0,0-2.352Z" transform="translate(1.601 1.22)" fill="#2b2b2b"/>
          <path id="Path_5261" data-name="Path 5261" d="M14.2,11.327H11.85a1.176,1.176,0,1,0,0,2.352H14.2a1.176,1.176,0,1,0,0-2.352Z" transform="translate(2.363 2.44)" fill="#2b2b2b"/>
          <path id="Path_5262" data-name="Path 5262" d="M3.921,17.426a1.176,1.176,0,0,0,2.352,0V15.561L9.852,19.14a1.177,1.177,0,1,0,1.664-1.664L7.938,13.9H9.8a1.176,1.176,0,0,0,0-2.352H6.861a2.945,2.945,0,0,0-2.941,2.941Z" transform="translate(0 2.516)" fill="#2b2b2b"/>
        </g>
      </g>
    </g>
  </g>
</svg>
