<?xml version="1.0" standalone="no"?>
<!DOCTYPE svg PUBLIC "-//W3C//DTD SVG 1.0//EN" "http://www.w3.org/TR/2001/REC-SVG-20010904/DTD/svg10.dtd">
<svg xmlns="http://www.w3.org/2000/svg" xmlns:xlink="http://www.w3.org/1999/xlink" id="body_1" width="24" height="24">

<defs>
        <clipPath  id="1">

            <path clip-rule="evenodd" d="M89 68.31L135 68.31L135 114.31L89 114.31z" />        </clipPath>
</defs>

<g transform="matrix(0.5217391 0 0 0.5217391 0 0)">
	<g transform="matrix(1 0 0 1 -89 -68.31)" clip-path="url(#1)" >
        <path transform="matrix(1 0 0 1 84.4 63.71)"  d="M27.6 4.6C 36.902634 4.6000004 45.28927 10.203772 48.849228 18.798283C 52.40919 27.392792 50.44141 37.285503 43.863457 43.863457C 37.285503 50.44141 27.392794 52.40919 18.798283 48.849228C 10.203772 45.28927 4.6000004 36.902634 4.6000004 27.6C 4.6000004 14.89745 14.89745 4.6000004 27.6 4.6zM27.6 9.2C 17.437958 9.199999 9.199999 17.43796 9.199999 27.599998C 9.199999 37.76204 17.43796 46 27.6 46C 37.76204 45.999996 45.999996 37.76204 46 27.6C 46 22.720016 44.06143 18.039906 40.610764 14.589234C 37.16009 11.138565 32.479984 9.199999 27.6 9.2zM42.3 21.029C 45.018394 27.123684 43.699017 34.263348 38.982 38.984L38.982 38.984L35.729 35.731003C 38.63261 32.824142 39.768444 28.590952 38.71 24.621zM37.355 14.588999L40.607998 17.842L32.042 26.411C 32.579544 28.421875 31.699795 30.543137 29.896872 31.58335C 28.093948 32.62356 25.81718 32.32348 24.34535 30.851648C 22.87352 29.379818 22.573437 27.10305 23.61365 25.300127C 24.653862 23.497204 26.775124 22.617455 28.786 23.154999z" stroke="none" fill="#234F80" fill-rule="nonzero" />
	</g>
</g>
</svg>