<?xml version="1.0" standalone="no"?>
<!DOCTYPE svg PUBLIC "-//W3C//DTD SVG 1.0//EN" "http://www.w3.org/TR/2001/REC-SVG-20010904/DTD/svg10.dtd">
<svg xmlns="http://www.w3.org/2000/svg" xmlns:xlink="http://www.w3.org/1999/xlink" id="body_1" width="24" height="24">

<defs>
        <clipPath  id="1">

            <path clip-rule="evenodd" d="M79 349L125 349L125 395L79 395z" />        </clipPath>
</defs>

<g transform="matrix(0.5217391 0 0 0.5217391 0 0)">
	<g transform="matrix(1 0 0 1 -79 -349)" clip-path="url(#1)" >
        <path transform="matrix(1 0 0 1 72.166 344.663)"  d="M45.562 4.556C 46.820107 4.5560007 47.84 5.575896 47.84 6.834L47.84 6.834L47.84 15.393L43.284 19.949L43.284 9.112L11.39 9.112L11.39 45.562L43.284 45.562L43.284 39.279L47.84 34.723L47.84 47.84C 47.84 49.098106 46.820107 50.118 45.562 50.118L45.562 50.118L9.112 50.118C 7.853896 50.118 6.8340006 49.098106 6.834 47.84L6.834 47.84L6.834 6.834C 6.8340006 5.5758953 7.853896 4.556 9.112 4.556L9.112 4.556L45.562 4.556zM49.613 20.064001L52.835 23.286001L35.115 41.006L31.889002 41.006L31.889002 37.789zM29.612999 27.337002L29.612999 31.893002L18.225 31.893002L18.225 27.337zM36.447 18.225002L36.447 22.781002L18.225 22.781002L18.225 18.225z" stroke="none" fill="#234F80" fill-rule="nonzero" />
	</g>
</g>
</svg>