<svg xmlns="http://www.w3.org/2000/svg" xmlns:xlink="http://www.w3.org/1999/xlink" width="42" height="42" viewBox="0 0 42 42">
  <defs>
    <clipPath id="clip-path">
      <circle id="Ellipse_149" data-name="Ellipse 149" cx="17" cy="17" r="17" transform="translate(348 307)" fill="#d8d8d8"/>
    </clipPath>
  </defs>
  <g id="Group_11217" data-name="Group 11217" transform="translate(-344 -303)">
    <circle id="Ellipse_148" data-name="Ellipse 148" cx="21" cy="21" r="21" transform="translate(344 303)" fill="#ee0200"/>
    <g id="Mask_Group_10276" data-name="Mask Group 10276" clip-path="url(#clip-path)">
      <g id="noun-done-1482838" transform="translate(350.471 309.47)">
        <g id="Group_11197" data-name="Group 11197">
          <path id="Path_5112" data-name="Path 5112" d="M25.05,9.27a1.749,1.749,0,0,0-1.133,2.209A9.874,9.874,0,1,1,14.53,4.65a9.288,9.288,0,0,1,2.674.378,1.748,1.748,0,0,0,.93-3.371,13.646,13.646,0,0,0-3.6-.494A13.368,13.368,0,1,0,27.9,14.53a14.07,14.07,0,0,0-.639-4.126A1.761,1.761,0,0,0,25.05,9.27Z" fill="#fff"/>
          <g id="Group_11216" data-name="Group 11216" transform="translate(-18.393 -22.393)">
            <path id="Path_5113" data-name="Path 5113" d="M40.357,40.844A1.487,1.487,0,0,0,41.409,38.3l-4.383-3.383,6.383-6.383a1.488,1.488,0,1,0-2.1-2.1l-6.383,6.383-3.383-3.383a1.488,1.488,0,0,0-2.1,2.1l3.383,3.383L26.435,41.3a1.488,1.488,0,0,0,2.1,2.1l6.383-6.383L39.3,40.409A1.486,1.486,0,0,0,40.357,40.844Z" fill="#fff"/>
          </g>
        </g>
      </g>
    </g>
  </g>
</svg>
