<?xml version="1.0" standalone="no"?>
<!DOCTYPE svg PUBLIC "-//W3C//DTD SVG 1.0//EN" "http://www.w3.org/TR/2001/REC-SVG-20010904/DTD/svg10.dtd">
<svg xmlns="http://www.w3.org/2000/svg" xmlns:xlink="http://www.w3.org/1999/xlink" id="body_1" width="24" height="24">

<defs>
        <clipPath  id="1">

            <path clip-rule="evenodd" d="M90 182L136 182L136 228L90 228z" />        </clipPath>
</defs>

<g transform="matrix(0.5217391 0 0 0.5217391 0 0)">
	<g transform="matrix(1 0 0 1 -90 -182)" clip-path="url(#1)" >
        <path transform="matrix(1 0 0 1 85.4 177.4)"  d="M20.7 5.653L20.7 10.538C 12.948547 13.678467 8.2901535 21.651562 9.360456 29.94626C 10.4307575 38.24096 16.960476 44.7704 25.255219 45.840355C 33.54996 46.91031 41.522858 42.251587 44.663 34.5L44.663 34.5L49.547997 34.5C 46.26996 44.90744 36.130474 51.57926 25.275377 50.471474C 14.420279 49.36369 5.8375225 40.78123 4.7293663 29.926168C 3.62121 19.071106 10.292675 8.931398 20.7 5.653zM27.6 4.6C 40.30255 4.5999985 50.6 14.8974495 50.6 27.6C 50.6 28.376001 50.562 29.142668 50.486 29.9L50.486 29.9L25.3 29.9L25.3 4.714C 26.056667 4.638 26.823334 4.6 27.6 4.6zM29.9 9.342L29.9 25.3L45.858 25.3C 44.80519 16.961506 38.238495 10.39481 29.9 9.342z" stroke="none" fill="#234F80" fill-rule="nonzero" />
	</g>
</g>
</svg>