<svg xmlns="http://www.w3.org/2000/svg" xmlns:xlink="http://www.w3.org/1999/xlink" width="22" height="22" viewBox="0 0 22 22">
  <g id="Mask_Group_10354" data-name="Mask Group 10354" transform="translate(-1489 -2)">
    <g id="noun-edit-1359758" transform="translate(1488.614 1.645)">
      <!-- Your icon paths without filter -->
      <path id="Path_5263" data-name="Path 5263" d="M11.97,2.821,3.746,11.046a.938.938,0,0,0-.272.584l-.3,3.587a.938.938,0,0,0,.938,1.018h.059L7.828,16a.938.938,0,0,0,.6-.272l8.222-8.222a2.579,2.579,0,0,0,0-3.648L15.612,2.821A2.579,2.579,0,0,0,11.97,2.821ZM7.354,14.153l-2.223.141.183-2.164L11.443,6l2.03,2.03Zm7.972-7.972-.528.528-2.03-2.03.528-.528a.7.7,0,0,1,.994,0l1.036,1.036A.7.7,0,0,1,15.326,6.181Z" transform="translate(0.228)" fill="#2b2b2b"/>
      <path id="Path_5263_-_Outline" data-name="Path 5263 - Outline" d="M13.791,1.819a2.811,2.811,0,0,1,2,.825L16.831,3.68a2.829,2.829,0,0,1,0,4L8.609,15.9a1.187,1.187,0,0,1-.766.345l-3.675.235H4.109A1.188,1.188,0,0,1,2.922,15.2l.3-3.587a1.19,1.19,0,0,1,.345-.74l8.225-8.225A2.811,2.811,0,0,1,13.791,1.819ZM4.16,15.985l3.652-.234a.688.688,0,0,0,.444-.2l8.222-8.222a2.329,2.329,0,0,0,0-3.295L15.435,3a2.329,2.329,0,0,0-3.288,0L3.922,11.223a.689.689,0,0,0-.2.428l-.3,3.587a.688.688,0,0,0,.685.747Zm9.633-12.29a.947.947,0,0,1,.674.279L15.5,5.01a.955.955,0,0,1,0,1.348l-.7.7L12.414,4.678l.7-.7A.947.947,0,0,1,13.792,3.695ZM14.8,6.355,15.149,6a.454.454,0,0,0,0-.641L14.112,4.327a.453.453,0,0,0-.641,0l-.351.351Zm-3.355-.708,2.384,2.384L7.464,14.4l-2.606.165.215-2.544ZM13.12,8.031,11.443,6.354,5.556,12.241,5.4,14.025l1.839-.116Z" transform="translate(0.228)" fill="#2b2b2b"/>
      <path id="Path_5264" data-name="Path 5264" d="M19.943,16.234H2.828a.938.938,0,1,0,0,1.876H19.943a.938.938,0,1,0,0-1.876Z" transform="translate(0 2.531)" fill="#2b2b2b"/>
      <path id="Path_5264_-_Outline" data-name="Path 5264 - Outline" d="M2.828,15.984H19.943a1.188,1.188,0,0,1,0,2.376H2.828a1.188,1.188,0,1,1,0-2.376Zm17.115,1.876a.688.688,0,0,0,0-1.376H2.828a.688.688,0,0,0,0,1.376Z" transform="translate(0 2.531)" fill="#2b2b2b"/>
    </g>
  </g>
</svg>
