<svg xmlns="http://www.w3.org/2000/svg" xmlns:xlink="http://www.w3.org/1999/xlink" width="22" height="22" viewBox="0 0 22 22">
  <g id="Mask_Group_10355" data-name="Mask Group 10355" transform="translate(-1489 -3)">
    <g id="noun-verified-user-547201" transform="translate(1489.657 3.664)">
      <!-- Your icon paths without filter -->
      <path id="Path_5265" data-name="Path 5265" d="M17.437,3.248h-2.71A2.981,2.981,0,0,0,13.8,9.06v1.427a.145.145,0,0,0,.248.1L15.41,9.225h2.027a2.989,2.989,0,0,0,0-5.978Zm-1.2,3.558-.5.5-.5-.5-.476-.476.5-.5.476.476L16.9,5.171l.5.5ZM6.371,17.644H.269V15.658a1.43,1.43,0,0,1,.5-1.076,22.6,22.6,0,0,1,3.641-2.4,21.736,21.736,0,0,0,1.448,2.9s.517-1.82,1.365-1.324A22.1,22.1,0,0,1,4.944,11.77v-1.3a3.059,3.059,0,0,1-.393-1.1c-.145-.021-.352-.228-.579-.993C3.7,7.405,3.951,7.2,4.2,7.2L4.137,6.95h0a2.853,2.853,0,0,1,0-1.386,3.044,3.044,0,0,1,.807-1.407,4.237,4.237,0,0,1,.745-.621,3,3,0,0,1,.724-.372h0a2.345,2.345,0,0,1,.662-.124,2.741,2.741,0,0,1,1.655.352,2.2,2.2,0,0,1,.807.745s1.324.1.889,2.792l-.062.248c.248,0,.517.207.228,1.179-.207.765-.414.972-.579.993a3.514,3.514,0,0,1-.393,1.1v1.3a22.1,22.1,0,0,1-2.275,1.986c.848-.476,1.365,1.324,1.365,1.324a21.736,21.736,0,0,0,1.448-2.9,23.549,23.549,0,0,1,3.641,2.4,1.363,1.363,0,0,1,.5,1.076v1.986H6.371Z" fill="#2b2b2b"/>
    </g>
  </g>
</svg>