<svg width="40" height="40" viewBox="0 0 40 40" fill="none" xmlns="http://www.w3.org/2000/svg">
<path d="M17.8845 9.59923C18.4919 7.47089 21.5081 7.47089 22.1155 9.59922L22.4988 10.9422C23.0023 12.7066 24.8151 13.7532 26.5949 13.3071L27.9496 12.9675C30.0965 12.4294 31.6046 15.0415 30.0651 16.6317L29.0937 17.6351C27.8174 18.9534 27.8174 21.0466 29.0937 22.3649L30.0651 23.3683C31.6046 24.9585 30.0965 27.5706 27.9496 27.0325L26.5949 26.6929C24.8151 26.2468 23.0023 27.2934 22.4988 29.0578L22.1155 30.4008C21.5081 32.5291 18.4919 32.5291 17.8845 30.4008L17.5012 29.0578C16.9977 27.2934 15.1849 26.2468 13.4051 26.6929L12.0504 27.0325C9.90354 27.5706 8.3954 24.9585 9.9349 23.3683L10.9063 22.3649C12.1826 21.0466 12.1826 18.9534 10.9063 17.6351L9.9349 16.6317C8.3954 15.0415 9.90354 12.4294 12.0504 12.9675L13.4051 13.3071C15.1849 13.7532 16.9977 12.7066 17.5012 10.9422L17.8845 9.59923Z" fill="#F8FAFB" stroke="#292929" stroke-width="1.2"/>
<circle cx="20" cy="20" r="3" fill="#292929"/>
</svg>
