<svg id="noun-submit-4370277" xmlns="http://www.w3.org/2000/svg" width="22.42" height="22.42" viewBox="0 0 22.42 22.42">
  <path id="Path_5107" data-name="Path 5107" d="M7.7,3.5a.934.934,0,0,1,.934-.934H10.5a.934.934,0,0,1,0,1.868H8.632A.934.934,0,0,1,7.7,3.5Z" transform="translate(3.512 1.171)" fill="whtie"/>
  <path id="Path_5108" data-name="Path 5108" d="M7.7,5.425a.934.934,0,0,1,.934-.934H10.5a.934.934,0,0,1,0,1.868H8.632A.934.934,0,0,1,7.7,5.425Z" transform="translate(3.512 2.049)" fill="whtie"/>
  <path id="Path_5109" data-name="Path 5109" d="M3.5,2.566a.934.934,0,0,0-.934.934V7.237a.934.934,0,0,0,.934.934H7.237a.934.934,0,0,0,.934-.934V3.5a.934.934,0,0,0-.934-.934Z" transform="translate(1.171 1.171)" fill="whtie"/>
  <path id="Path_5110" data-name="Path 5110" d="M0,2.8A2.8,2.8,0,0,1,2.8,0H15.881a2.8,2.8,0,0,1,2.8,2.8V9.66a5.607,5.607,0,0,1-.074,10.6,2.8,2.8,0,0,1-2.729,2.162H2.8a2.8,2.8,0,0,1-2.8-2.8Zm16.149,17.71a5.593,5.593,0,0,1-3.512-1.829H4.671a.934.934,0,0,1,0-1.868h6.858a5.558,5.558,0,0,1-.241-.934H4.671a.934.934,0,1,1,0-1.868h6.617a5.558,5.558,0,0,1,.241-.934H4.671a.934.934,0,1,1,0-1.868h7.966a5.591,5.591,0,0,1,4.178-1.868V2.8a.934.934,0,0,0-.934-.934H2.8a.934.934,0,0,0-.934.934V19.617a.934.934,0,0,0,.934.934H15.881A.932.932,0,0,0,16.149,20.512ZM19.2,12.3a.934.934,0,0,1,.259,1.3l-2.491,3.737a.934.934,0,0,1-1.555,0l-1.246-1.868a.934.934,0,0,1,1.555-1.036l.468.7,1.714-2.571A.934.934,0,0,1,19.2,12.3Z" fill="whtie" fill-rule="evenodd"/>
</svg>
