<svg id="noun-homework-4370270" xmlns="http://www.w3.org/2000/svg" width="21.408" height="25.689" viewBox="0 0 21.408 25.689">
  <path id="Path_5105" data-name="Path 5105" d="M8.988,4.491a6.422,6.422,0,1,0,6.422,6.422A6.422,6.422,0,0,0,8.988,4.491Zm2.735,3.391a1.071,1.071,0,0,1,.3,1.484L9.165,13.647a1.07,1.07,0,0,1-1.781,0L5.957,11.507a1.07,1.07,0,1,1,1.781-1.187l.537.8,1.964-2.946A1.071,1.071,0,0,1,11.723,7.881Z" transform="translate(1.715 3.002)" fill="white" fill-rule="evenodd"/>
  <path id="Path_5106" data-name="Path 5106" d="M3.211,0A3.211,3.211,0,0,0,0,3.211V22.478a3.211,3.211,0,0,0,3.211,3.211H18.2a3.211,3.211,0,0,0,3.211-3.211V6.422a1.071,1.071,0,0,0-.314-.757L15.742.314A1.07,1.07,0,0,0,14.985,0ZM2.141,3.211a1.07,1.07,0,0,1,1.07-1.07h10.7V6.422a1.07,1.07,0,0,0,1.07,1.07h4.282V22.478a1.07,1.07,0,0,1-1.07,1.07H3.211a1.07,1.07,0,0,1-1.07-1.07Z" fill="white" fill-rule="evenodd"/>
</svg>
