<svg xmlns="http://www.w3.org/2000/svg" xmlns:xlink="http://www.w3.org/1999/xlink" width="44" height="44" viewBox="0 0 44 44">
  <defs>
    <clipPath id="clip-path">
      <rect id="Rectangle_3348" data-name="Rectangle 3348" width="44" height="44" rx="4" transform="translate(27)" fill="#6c757d"/>
    </clipPath>
  </defs>
  <g id="Mask_Group_10214" data-name="Mask Group 10214" transform="translate(-27)" clip-path="url(#clip-path)">
    <g id="noun-people-4130644" transform="translate(25.905 -0.896)">
      <g id="Layer_9" data-name="Layer 9" transform="translate(4.148 4.151)">
        <path id="Path_4962" data-name="Path 4962" d="M9.1,16.8a1.723,1.723,0,0,0,2.471-.869,10.225,10.225,0,0,1,6.016-6.016,1.7,1.7,0,0,0,.869-2.471,6.714,6.714,0,0,0-5.828-3.289,6.816,6.816,0,0,0-6.816,6.816A6.714,6.714,0,0,0,9.1,16.8Z" transform="translate(-2.396 -4.151)" fill="#234f80"/>
        <path id="Path_4963" data-name="Path 4963" d="M14.089,16.595a9.935,9.935,0,0,1-1.244-3.408,1.718,1.718,0,0,0-2.028-1.4,17.16,17.16,0,0,0-2.948.886,6.033,6.033,0,0,0,0,11.145,1.7,1.7,0,0,0,2.2-.886,9.236,9.236,0,0,1,3.408-4.056A1.7,1.7,0,0,0,14.089,16.595Z" transform="translate(-4.148 3.855)" fill="#234f80"/>
        <path id="Path_4964" data-name="Path 4964" d="M15.587,9.911A10.225,10.225,0,0,1,21.6,15.926a1.709,1.709,0,0,0,2.471.869,6.714,6.714,0,0,0,3.289-5.828,6.816,6.816,0,0,0-6.816-6.816A6.714,6.714,0,0,0,14.718,7.44a1.7,1.7,0,0,0,.869,2.471Z" transform="translate(6.726 -4.151)" fill="#234f80"/>
        <path id="Path_4965" data-name="Path 4965" d="M23.913,12.7a17.16,17.16,0,0,0-2.948-.886,1.718,1.718,0,0,0-2.028,1.4,9.935,9.935,0,0,1-1.244,3.408,1.7,1.7,0,0,0,.545,2.284,9.236,9.236,0,0,1,3.408,4.056A1.7,1.7,0,0,0,23.2,23.965h0a1.6,1.6,0,0,0,.631-.119,6.033,6.033,0,0,0,0-11.145Z" transform="translate(9.869 3.881)" fill="#234f80"/>
        <circle id="Ellipse_127" data-name="Ellipse 127" cx="6.816" cy="6.816" r="6.816" transform="translate(11.936 8.521)" fill="#234f80"/>
        <path id="Path_4966" data-name="Path 4966" d="M25.04,17.016a17.706,17.706,0,0,0-13.019,0,6.033,6.033,0,0,0,0,11.145,17.655,17.655,0,0,0,13.019,0,6.033,6.033,0,0,0,0-11.145Z" transform="translate(0.222 8.086)" fill="#234f80"/>
      </g>
    </g>
  </g>
</svg>
