<svg xmlns="http://www.w3.org/2000/svg" width="30.379" height="12.152" viewBox="0 0 30.379 12.152">
  <path id="ui-checks" d="M14.177,5.3A1.013,1.013,0,0,1,15.19,4.292H29.366A1.013,1.013,0,0,1,30.379,5.3V7.33a1.013,1.013,0,0,1-1.013,1.013H15.19A1.013,1.013,0,0,1,14.177,7.33ZM4.051,2.267A4.051,4.051,0,0,0,0,6.317v4.051a4.051,4.051,0,0,0,4.051,4.051H8.1a4.051,4.051,0,0,0,4.051-4.051V6.317A4.051,4.051,0,0,0,8.1,2.267Zm1.73,8.818a1.013,1.013,0,0,1-1.434,0L2.321,9.059A1.014,1.014,0,1,1,3.755,7.626l1.308,1.31L8.4,5.6A1.014,1.014,0,1,1,9.831,7.034Zm8.4.3a1.013,1.013,0,0,1,1.013-1.013H25.316a1.013,1.013,0,0,1,0,2.025H15.19a1.013,1.013,0,0,1-1.013-1.013" transform="translate(0 -2.267)" fill="white"/>
</svg>
